HIERARCHY
ROOT Hips
{
	OFFSET 0.000000 0.000000 0.000000
	CHANNELS 6 Xposition Yposition Zposition Zrotation Yrotation Xrotation 
	JOINT LHipJoint
	{
		OFFSET 0.000000 0.000000 0.000000
		CHANNELS 3 Zrotation Yrotation Xrotation
		JOINT LeftUpLeg
		{
			OFFSET 1.363060 -1.794630 0.839290
			CHANNELS 3 Zrotation Yrotation Xrotation
			JOINT LeftLeg
			{
				OFFSET 2.448110 -6.726130 0.000000
				CHANNELS 3 Zrotation Yrotation Xrotation
				JOINT LeftFoot
				{
					OFFSET 2.562200 -7.039590 0.000000
					CHANNELS 3 Zrotation Yrotation Xrotation
					JOINT LeftToeBase
					{
						OFFSET 0.157640 -0.433110 2.322550
						CHANNELS 3 Zrotation Yrotation Xrotation
						End Site
						{
							OFFSET 0.000000 0.000000 0.000000
						}
					}
				}
			}
		}
	}
	JOINT RHipJoint
	{
		OFFSET 0.000000 0.000000 0.000000
		CHANNELS 3 Zrotation Yrotation Xrotation
		JOINT RightUpLeg
		{
			OFFSET -1.305520 -1.794630 0.839290
			CHANNELS 3 Zrotation Yrotation Xrotation
			JOINT RightLeg
			{
				OFFSET -2.542530 -6.985550 0.000000
				CHANNELS 3 Zrotation Yrotation Xrotation
				JOINT RightFoot
				{
					OFFSET -2.568260 -7.056230 0.000000
					CHANNELS 3 Zrotation Yrotation Xrotation
					JOINT RightToeBase
					{
						OFFSET -0.164730 -0.452590 2.363150
						CHANNELS 3 Zrotation Yrotation Xrotation
						End Site
						{
							OFFSET 0.000000 0.000000 0.000000
						}
					}
				}
			}
		}
	}
	JOINT LowerBack
	{
		OFFSET 0.000000 0.000000 0.000000
		CHANNELS 3 Zrotation Yrotation Xrotation
		JOINT Spine
		{
			OFFSET 0.028270 2.035590 -0.193380
			CHANNELS 3 Zrotation Yrotation Xrotation
			JOINT Spine1
			{
				OFFSET 0.056720 2.048850 -0.042750
				CHANNELS 3 Zrotation Yrotation Xrotation
				JOINT Neck
				{
					OFFSET 0.000000 0.000000 0.000000
					CHANNELS 3 Zrotation Yrotation Xrotation
					JOINT Neck1
					{
						OFFSET -0.054170 1.746240 0.172020
						CHANNELS 3 Zrotation Yrotation Xrotation
						JOINT Head
						{
							OFFSET 0.104070 1.761360 -0.123970
							CHANNELS 3 Zrotation Yrotation Xrotation
							End Site
							{
								OFFSET 0.000000 0.000000 0.000000
							}
						}
					}
				}
				JOINT LeftShoulder
				{
					OFFSET 0.000000 0.000000 0.000000
					CHANNELS 3 Zrotation Yrotation Xrotation
					JOINT LeftArm
					{
						OFFSET 3.362410 1.200890 -0.311210
						CHANNELS 3 Zrotation Yrotation Xrotation
						JOINT LeftForeArm
						{
							OFFSET 4.983000 -0.000000 -0.000000
							CHANNELS 3 Zrotation Yrotation Xrotation
							JOINT LeftHand
							{
								OFFSET 3.483560 -0.000000 -0.000000
								CHANNELS 3 Zrotation Yrotation Xrotation
								JOINT LeftFingerBase
								{
									OFFSET 0.000000 0.000000 0.000000
									CHANNELS 3 Zrotation Yrotation Xrotation
									JOINT LeftHandIndex1
									{
										OFFSET 0.715260 -0.000000 -0.000000
										CHANNELS 3 Zrotation Yrotation Xrotation
										End Site
										{
											OFFSET 0.000000 0.000000 0.000000
										}
									}
								}
								JOINT LThumb
								{
									OFFSET 0.000000 0.000000 0.000000
									CHANNELS 3 Zrotation Yrotation Xrotation
									End Site
									{
										OFFSET 0.000000 0.000000 0.000000
									}
								}
							}
						}
					}
				}
				JOINT RightShoulder
				{
					OFFSET 0.000000 0.000000 0.000000
					CHANNELS 3 Zrotation Yrotation Xrotation
					JOINT RightArm
					{
						OFFSET -3.136600 1.374050 -0.404650
						CHANNELS 3 Zrotation Yrotation Xrotation
						JOINT RightForeArm
						{
							OFFSET -5.241900 -0.000000 -0.000000
							CHANNELS 3 Zrotation Yrotation Xrotation
							JOINT RightHand
							{
								OFFSET -3.444170 -0.000000 -0.000000
								CHANNELS 3 Zrotation Yrotation Xrotation
								JOINT RightFingerBase
								{
									OFFSET 0.000000 0.000000 0.000000
									CHANNELS 3 Zrotation Yrotation Xrotation
									JOINT RightHandIndex1
									{
										OFFSET -0.622530 -0.000000 -0.000000
										CHANNELS 3 Zrotation Yrotation Xrotation
										End Site
										{
											OFFSET 0.000000 0.000000 0.000000
										}
									}
								}
								JOINT RThumb
								{
									OFFSET 0.000000 0.000000 0.000000
									CHANNELS 3 Zrotation Yrotation Xrotation
									End Site
									{
										OFFSET 0.000000 0.000000 0.000000
									}
								}
							}
						}
					}
				}
			}
		}
	}
}
MOTION
Frames: 9
Frame Time: 0.008333
2.151878 16.006448 0.572830 125.898905 -79.107242 -80.686520 -10.191378 -1.246617 -1.917451 -19.394322 -5.553304 -68.783196 -1.006923 4.741563 65.394889 4.442737 16.953167 -25.778959 -5.031500 -0.000000 -8.154800 7.794556 1.385951 -3.970532 15.155815 -9.788017 -71.509081 3.173340 -6.434663 60.048482 0.868214 11.930765 -20.772636 -1.614200 0.000000 -38.615200 5.266858 0.507547 9.812722 0.970197 0.537947 -0.610153 -2.601493 0.479050 -0.634059 4.151451 -7.884197 -6.415454 -0.678843 -0.027249 -0.365351 0.000000 0.000000 0.000000 5.439660 11.211619 2.672047 -63.195130 21.633260 27.495283 -0.337500 -81.417432 0.030574 -10.918309 5.779021 -0.550660 0.135113 0.091727 -0.000000 0.000000 0.000000 0.000000 0.000000 0.000000 0.000000 -2.485977 -1.338971 -0.292825 61.145795 -2.602222 -0.215612 179.789703 80.697556 179.947937 -7.860586 1.175602 -0.110428 0.145985 -0.412482 0.000000 0.000000 0.000000 0.000000 0.000000 0.000000 0.000000 
2.021120 16.031071 0.553891 125.711306 -79.150732 -80.465125 -9.990736 -1.277554 -1.705122 -19.344383 -6.279119 -70.178676 -1.087846 4.725507 64.536948 4.491116 16.736700 -25.889115 -4.977600 0.000000 -7.971700 7.845040 1.386891 -4.114563 15.055136 -10.143593 -70.657950 3.239843 -6.378045 59.589745 0.896391 12.107897 -20.691226 -1.652900 -0.000000 -39.491099 4.962103 0.586532 9.784684 0.917358 0.623239 -0.623944 -2.522343 0.565752 -0.650619 3.978655 -7.763073 -6.436132 -0.645208 -0.024447 -0.369366 0.000000 0.000000 0.000000 5.382343 11.367699 2.676067 -62.946758 22.061086 27.712746 -0.316988 -81.891799 0.030950 -11.072260 5.539772 -0.534980 0.139216 0.093477 -0.000000 0.000000 0.000000 0.000000 0.000000 0.000000 0.000000 -2.773027 -1.149730 -0.274872 60.641666 -2.348632 -0.114635 179.786776 80.759516 179.947754 -7.886151 1.071496 -0.103426 0.148066 -0.410874 0.000000 0.000000 0.000000 0.000000 0.000000 0.000000 0.000000 
1.888116 16.053522 0.535617 125.601506 -79.202616 -80.350746 -9.794019 -1.284546 -1.496724 -19.336398 -6.939731 -71.524194 -1.184884 4.706380 63.581121 4.535243 16.496245 -25.972062 -4.909500 -0.000000 -7.783000 7.898554 1.387840 -4.251855 14.930776 -10.475823 -69.767794 3.296100 -6.316562 59.154755 0.921590 12.264295 -20.599006 -1.686900 -0.000000 -40.485000 4.655681 0.661117 9.749783 0.863777 0.704185 -0.639923 -2.446523 0.648256 -0.663616 3.808784 -7.654014 -6.464420 -0.610253 -0.021462 -0.374634 0.000000 0.000000 0.000000 5.329138 11.537615 2.680958 -62.706757 22.509535 27.930470 -0.298034 -82.338757 0.031257 -11.232437 5.305110 -0.519302 0.143289 0.094916 -0.000000 0.000000 0.000000 0.000000 0.000000 0.000000 0.000000 -3.064294 -0.976021 -0.259300 60.159412 -2.088114 0.005809 179.784972 80.831439 179.947460 -7.926631 0.962660 -0.096122 0.150333 -0.409195 0.000000 0.000000 0.000000 0.000000 0.000000 0.000000 0.000000 
1.752741 16.073778 0.518004 125.564669 -79.262967 -80.336976 -9.602678 -1.267223 -1.291520 -19.375161 -7.538788 -72.816004 -1.300243 4.684066 62.524902 4.566573 16.195524 -26.013936 -4.814700 -0.000000 -7.611200 7.955527 1.388918 -4.381399 14.779186 -10.782105 -68.841237 3.341673 -6.250666 58.746262 0.944420 12.403419 -20.495544 -1.717000 -0.000000 -41.563900 4.348522 0.731868 9.706356 0.809384 0.781385 -0.658555 -2.375065 0.727119 -0.673189 3.645233 -7.556857 -6.499229 -0.574610 -0.018361 -0.380818 0.000000 0.000000 0.000000 5.280808 11.719150 2.686550 -62.476098 22.978714 28.147357 -0.280925 -82.752072 0.031474 -11.394243 5.079058 -0.503925 0.147229 0.095967 -0.000000 0.000000 0.000000 0.000000 0.000000 0.000000 0.000000 -3.354134 -0.817642 -0.246201 59.697106 -1.823421 0.144620 179.783866 80.904424 179.947102 -7.975233 0.852527 -0.088818 0.152679 -0.407512 0.000000 0.000000 0.000000 0.000000 0.000000 0.000000 0.000000 
1.614811 16.091787 0.501022 125.592733 -79.331424 -80.414321 -9.417915 -1.225238 -1.088706 -19.464911 -8.080868 -74.045741 -1.436073 4.657585 61.362010 4.576768 15.804165 -25.994963 -4.680700 0.000000 -7.547500 8.016694 1.390266 -4.502927 14.597849 -11.062339 -67.878489 3.376780 -6.180707 58.364088 0.965462 12.529205 -20.381313 -1.744000 0.000000 -42.722900 4.040740 0.799274 9.653592 0.754012 0.855392 -0.680020 -2.308656 0.802864 -0.679388 3.491101 -7.471846 -6.539798 -0.538561 -0.015177 -0.387708 0.000000 0.000000 0.000000 5.239118 11.911363 2.692725 -62.255443 23.466030 28.365021 -0.265951 -83.125727 0.031581 -11.550822 4.865946 -0.489048 0.150895 0.096561 -0.000000 0.000000 0.000000 0.000000 0.000000 0.000000 0.000000 -3.638661 -0.674703 -0.235731 59.254105 -1.557900 0.301079 179.783102 80.969577 179.946716 -8.026350 0.745410 -0.081614 0.155009 -0.405913 0.000000 0.000000 0.000000 0.000000 0.000000 0.000000 0.000000 
1.474354 16.107625 0.484658 125.672411 -79.407622 -80.572205 -9.240661 -1.158920 -0.888347 -19.610374 -8.570245 -75.201232 -1.594706 4.625504 60.085011 4.559440 15.301741 -25.902571 -4.501200 -0.000001 -7.624801 8.082320 1.392041 -4.617810 14.386079 -11.319774 -66.876604 3.402613 -6.107070 58.006684 0.985043 12.647296 -20.263181 -1.769899 0.000000 -43.898500 3.733096 0.863616 9.593344 0.697611 0.926588 -0.703996 -2.248124 0.875838 -0.682748 3.349714 -7.398707 -6.585163 -0.502634 -0.011964 -0.395068 0.000000 0.000000 0.000000 5.205517 12.111843 2.699355 -62.045671 23.969455 28.583980 -0.253340 -83.454540 0.031535 -11.694328 4.671187 -0.475072 0.154134 0.096613 -0.000000 0.000000 0.000000 0.000000 0.000000 0.000000 0.000000 -3.912857 -0.546784 -0.227886 58.828766 -1.294882 0.473100 179.782339 81.018010 179.946333 -8.075755 0.645232 -0.074811 0.157248 -0.404475 0.000000 0.000000 0.000000 0.000000 0.000000 0.000000 0.000000 
1.331194 16.121311 0.468865 125.790481 -79.491612 -80.798227 -9.071701 -1.069051 -0.690689 -19.815531 -9.010241 -76.266397 -1.778347 4.585468 58.683722 4.510510 14.679868 -25.727475 -4.275000 0.000000 -7.940900 8.152718 1.393903 -4.727838 14.144614 -11.558844 -65.829237 3.420909 -6.029702 57.668475 1.003118 12.761078 -20.148109 -1.796699 0.000000 -45.090300 3.426238 0.925078 9.528154 0.640184 0.995253 -0.729935 -2.194003 0.946296 -0.683927 3.223826 -7.336968 -6.634401 -0.467237 -0.008762 -0.402733 0.000000 0.000000 0.000000 5.180975 12.318172 2.706309 -61.847519 24.487206 28.804698 -0.243301 -83.734764 0.031339 -11.817587 4.496864 -0.461893 0.156819 0.096105 -0.000000 0.000000 0.000000 0.000000 0.000000 0.000000 0.000000 -4.172470 -0.433205 -0.222465 58.419008 -1.038197 0.659296 179.781290 81.042154 179.945975 -8.120202 0.553957 -0.068606 0.159341 -0.403236 0.000000 0.000000 0.000000 0.000000 0.000000 0.000000 0.000000 
1.185234 16.132879 0.453606 125.933028 -79.583293 -81.082190 -8.911241 -0.956916 -0.496407 -20.085251 -9.404111 -77.222887 -1.988618 4.534449 57.147010 4.428457 13.942960 -25.462701 -4.005700 0.000000 -8.589200 8.228108 1.395519 -4.835469 13.875194 -11.785496 -64.728026 3.433632 -5.948411 57.342180 1.019305 12.872055 -20.044066 -1.825801 0.000000 -46.287201 3.120386 0.983728 9.461671 0.581685 1.061542 -0.756999 -2.146667 1.014378 -0.683391 3.115555 -7.286970 -6.686995 -0.432545 -0.005587 -0.410646 0.000000 0.000000 0.000000 5.166417 12.529722 2.713462 -61.660095 25.015899 29.029361 -0.235931 -83.964389 0.030969 -11.912057 4.347719 -0.450014 0.158794 0.094975 -0.000000 0.000000 0.000000 0.000000 0.000000 0.000000 0.000000 -4.414902 -0.334186 -0.219473 58.024144 -0.790029 0.859346 179.779794 81.036439 179.945648 -8.158910 0.474136 -0.063002 0.161270 -0.402244 0.000000 0.000000 0.000000 0.000000 0.000000 0.000000 0.000000 
1.036343 16.142490 0.438896 126.089373 -79.683922 -81.418311 -8.759445 -0.825186 -0.306638 -20.421666 -9.752592 -78.049280 -2.227371 4.468553 55.463993 4.315804 13.106195 -25.124764 -3.706700 0.000001 -9.494101 8.307676 1.395435 -4.944394 13.584013 -12.007914 -63.560232 3.444295 -5.862628 57.017323 1.032811 12.983652 -19.968309 -1.860700 -0.000000 -47.376201 2.817860 1.040076 9.399052 0.522423 1.126028 -0.784189 -2.106859 1.080616 -0.682307 3.027568 -7.246533 -6.741486 -0.399628 -0.002539 -0.418509 0.000000 0.000000 0.000000 5.162685 12.741951 2.720665 -61.488618 25.556612 29.253478 -0.231495 -84.138971 0.030427 -11.975762 4.222470 -0.439331 0.160035 0.093247 -0.000000 0.000000 0.000000 0.000000 0.000000 0.000000 0.000000 -4.633208 -0.247076 -0.218481 57.638398 -0.556227 1.070462 179.777573 80.992615 179.945361 -8.190884 0.402832 -0.057996 0.163028 -0.401435 0.000000 0.000000 0.000000 0.000000 0.000000 0.000000 0.000000 
